<svg xmlns="http://www.w3.org/2000/svg" viewBox="0 0 1625.35 1215.24"><defs><style>.cls-1,.cls-4{fill:#fff;}.cls-2,.cls-3{fill:#30302f;}.cls-3{opacity:0.07;}.cls-4,.cls-5{stroke:#30302f;stroke-miterlimit:10;}.cls-5,.cls-7{fill:none;}.cls-6{fill:#f1df08;}.cls-7{stroke:#030303;stroke-linejoin:round;stroke-dasharray:20 5 15 20;}.cls-8{fill:#030303;}.cls-9{fill:#302d3f;}</style></defs><g id="Layer_2" data-name="Layer 2"><g id="_16.Search" data-name="16.Search"><rect class="cls-1" width="1625.35" height="1215.24"/><rect class="cls-2" x="99.65" y="958.22" width="1449.68" height="5.91" rx="2"/><path class="cls-3" d="M264.81,955.55H1422.06s112-290.61-130.65-394.39S1026.22,154.31,760.62,357.73,15.93,831,264.81,955.55Z"/><path class="cls-4" d="M175.3,958.55s13.5-24.41-15-41.57-18-54.23,9.1-43.59,22.4,63,38.9,53,19.5-43,12-65.54,10.5-58.55,21-52.53,30,25.53,21,49.53-22.5,54.52-9,59.51,13.5,40.73,13.5,40.73Z"/><path class="cls-5" d="M234.94,921.92s-18.19,22.63-28.45,17.69"/><path class="cls-5" d="M246.59,825.69s-5.39,83.47-16.85,88.44"/><path class="cls-5" d="M203,937.33s-14.48-.87-15.43-6.48"/><path class="cls-5" d="M164.8,886.74s1.5,23.83,12,30.45"/><path class="cls-5" d="M289.19,858.28s61.71,94.66,0,102.72"/><circle class="cls-6" cx="289.19" cy="858.28" r="10.67"/><path class="cls-5" d="M308.51,895.89s17.8,7.64,19.43-17.3"/><path class="cls-5" d="M287.28,908.32s6.93,18.09,26,1.88"/><circle class="cls-6" cx="327.94" cy="875.26" r="10.67"/><circle class="cls-6" cx="287.28" cy="909.64" r="10.67"/><path class="cls-5" d="M358.31,889.19s-44,67.54,0,73.29"/><circle class="cls-6" cx="358.31" cy="889.19" r="7.61"/><path class="cls-5" d="M344.53,916s-12.7,5.45-13.86-12.35"/><path class="cls-5" d="M359.68,924.9s-4.95,12.91-18.52,1.33"/><circle class="cls-6" cx="330.67" cy="901.31" r="7.61"/><circle class="cls-6" cx="359.68" cy="925.84" r="7.61"/><path class="cls-5" d="M1431.87,836.62s61.72,94.66,0,102.72"/><circle class="cls-6" cx="1431.87" cy="836.62" r="10.67"/><path class="cls-5" d="M1451.19,874.23s17.81,7.64,19.43-17.3"/><path class="cls-5" d="M1430,886.66s6.93,18.09,26,1.88"/><circle class="cls-6" cx="1470.62" cy="853.6" r="10.67"/><circle class="cls-6" cx="1429.96" cy="887.98" r="10.67"/><path class="cls-5" d="M1501,867.53s-44,67.54,0,73.29"/><circle class="cls-6" cx="1501" cy="867.53" r="7.61"/><path class="cls-5" d="M1487.21,894.37s-12.7,5.45-13.86-12.35"/><path class="cls-5" d="M1502.36,903.24s-4.95,12.91-18.52,1.33"/><circle class="cls-6" cx="1473.35" cy="879.64" r="7.61"/><circle class="cls-6" cx="1502.36" cy="904.18" r="7.61"/><path class="cls-4" d="M1352.38,908.27s-50.93-42-2.69-54.95c0,0-4.94-54.83,28.72-48s19.52,35.05,19.52,35.05,44.47,33.81,6.13,50.54c0,0,61.09,63.22,12.89,67.85s-68.31,2.57-68.31,2.57S1310.32,963.65,1352.38,908.27Z"/><path class="cls-5" d="M1378.41,805.29s-14.85,138.47,12.74,155.5"/><path class="cls-5" d="M1377.78,937.28s24-9.94,27-23.3"/><path class="cls-5" d="M1340.14,870.39s21.93,13.94,34.55,8.67"/><path class="cls-5" d="M1376.67,923.36s9.61,6.07,14.59-13.24"/><path class="cls-4" d="M1350.41,946.24s9.28,13,33.55,5.8"/><path class="cls-4" d="M1427.94,957.9h65.43s11.27,2.32,6.31-10.7c0,0,11.73-13.2-10.1-18.84,0,0-7.82-23.24-23.47-17.25,0,0-11.15-.33-9.11,19.4,0,0-13.5-6.92-18.82,7C1438.18,937.53,1412.41,935.94,1427.94,957.9Z"/><path class="cls-4" d="M1472.73,923.36s19.5,26.78,0,30.87"/><path class="cls-4" d="M1481.4,946.24s-31.14,8.41-33.53-4.17"/><path class="cls-7" d="M924.76,891h84s31.5,0,25.5,19.15v17.81a17.61,17.61,0,0,0,17.61,17.6h322.56v-88.6l-262.87-3c-20.75-.24-40.34-10.47-51.64-27.87-7.37-11.37-11.5-26-5.28-43.62,8.48-24,31.61-39.65,57-39.65h302.06s18.15-8,17.37-26.43c-.62-14.95-13.34-26.56-28.3-26.56H1177a35.43,35.43,0,0,1-31.9-19.38c-5.44-11-5.06-24.77,18.19-35.55H1232a40.73,40.73,0,0,0,40.73-40.74V538.34"/><circle class="cls-6" cx="910.33" cy="918.25" r="43.97"/><path class="cls-6" d="M1276.34,526.7s-45.37-122.86,0-122.86C1326.08,403.84,1302.27,453.41,1276.34,526.7Z"/><circle class="cls-1" cx="1279.58" cy="430.86" r="16.2"/><path class="cls-2" d="M1087.81,892.72h86s-19.74-147-56-104.46S1087.81,892.72,1087.81,892.72Z"/><path class="cls-2" d="M1147.78,711h52.31s-12-89.44-34.06-63.55S1147.78,711,1147.78,711Z"/><rect class="cls-4" x="702.77" y="360.84" width="25" height="39"/><path class="cls-4" d="M727.46,288.88A44.09,44.09,0,0,0,684,325.8a16.5,16.5,0,0,0,5.41,32.08,14.93,14.93,0,0,0,1.65-.09,44.09,44.09,0,1,0,36.44-68.91Z"/><path class="cls-2" d="M672.87,294.88s40.5-46.5,79.5-6c0,0-10.83,28.85-68.41,36.92,0,0-24.29,27.41,7.06,32,0,0-19.51,74.45-66.08,61.27s0-72.59,0-72.59S615.75,278.64,672.87,294.88Z"/><path class="cls-4" d="M641.88,665.83l-36-101.8,30.92-93.19,44.56-2.77-27.06,83.62-4,25.9,14.61,77.74s8-3.19,13.67,10.5-3.55,54.73-13.67,43.11S641.88,665.83,641.88,665.83Z"/><path class="cls-4" d="M710.06,403.32s8.49,53.3-23.73,105.85L618.69,488S664.92,368.74,710.06,403.32Z"/><rect class="cls-4" x="877.31" y="799.83" width="22.35" height="66.53" transform="translate(72.32 -70.97) rotate(4.77)"/><polygon class="cls-8" points="872.64 856.11 872.64 886.83 963.08 886.81 905.76 853.73 872.64 856.11"/><path class="cls-8" d="M689.44,611.3s40.17-34.57,73-33.69c21.92.58,76.86.38,110.94.18a29.24,29.24,0,0,1,29.41,28.57l5.34,229-37.8,4.89-32.57-185S683.31,640.91,689.44,611.3Z"/><rect class="cls-4" x="683.22" y="875.21" width="22.35" height="66.53" transform="translate(77.92 -54.57) rotate(4.77)"/><polygon class="cls-8" points="678.55 931.49 678.56 962.21 769 962.19 711.68 929.1 678.55 931.49"/><path class="cls-9" d="M687.9,572s64-18,83.07,0-58.89,349.58-58.89,349.58h-36Z"/><path class="cls-4" d="M686.26,622.62s113.61,49,112.43-48.65L749,401.37s-36.35-11.37-53.89-6S647.92,523.12,686.26,622.62Z"/><path class="cls-9" d="M715.27,332.08h0a9.52,9.52,0,0,0,8.92,9.51l121.93,7.78a9.53,9.53,0,0,0,10.14-9.51V303.54a9.53,9.53,0,0,0-11.7-9.28L722.63,322.8A9.53,9.53,0,0,0,715.27,332.08Z"/><path class="cls-4" d="M814.85,354.27l-16.38,66.86L709.9,407.82l1.84,35.29,113.73,10.16,11-85.94s20.36-53-5.75-47.3S814.85,354.27,814.85,354.27Z"/><path class="cls-4" d="M698,400.25s44.3-13.52,92.51,13.49L780.1,483S673.7,448.41,698,400.25Z"/><path class="cls-3" d="M1080.09,341.38h240s-60-66-84-50-54,42-78,32S1098.09,301.38,1080.09,341.38Z"/><path class="cls-3" d="M203.05,509.23h240s-60-66-84-50-54,42-78,32S221.05,469.23,203.05,509.23Z"/><path class="cls-3" d="M1340.91,545.2H1510s-42.26-46.5-59.17-35.23-38,29.59-55,22.55S1353.59,517,1340.91,545.2Z"/></g></g></svg>